<?xml version="1.0" encoding="UTF-8"?>
<!-- SPDX-License-Identifier: GPL-3.0-or-later · Original Open Hardware Control artwork -->
<svg xmlns="http://www.w3.org/2000/svg" viewBox="0 0 600 360" role="img" aria-label="Eigene schematische symmetrische Gaming-Maus">
  <defs><linearGradient id="body" x1="0" y1="0" x2="1" y2="1"><stop stop-color="#293b49"/><stop offset="1" stop-color="#101820"/></linearGradient></defs>
  <path d="M300 17c-71 0-109 41-117 123l-9 96c-7 73 50 109 126 109s133-36 126-109l-9-96C409 58 371 17 300 17Z" fill="url(#body)" stroke="#73899d" stroke-width="4"/>
  <path d="M300 20v144M183 149h234" fill="none" stroke="#506476" stroke-width="3"/>
  <rect x="285" y="58" width="30" height="70" rx="15" fill="#0c141b" stroke="#35b8ee" stroke-width="3"/>
  <path d="M300 65v24" stroke="#35b8ee" stroke-width="4" stroke-linecap="round"/>
  <rect x="281" y="147" width="38" height="34" rx="12" fill="#0e171e" stroke="#35b8ee" stroke-width="2"/>
  <path d="M181 103c-29 16-40 49-38 89l4 59 31-12 5-90Z" fill="#182733" stroke="#73899d" stroke-width="3"/>
  <path d="M419 103c29 16 40 49 38 89l-4 59-31-12-5-90Z" fill="#182733" stroke="#73899d" stroke-width="3"/>
  <g fill="#14222c" stroke="#35b8ee" stroke-width="2"><rect x="146" y="91" width="34" height="46" rx="9"/><rect x="143" y="142" width="34" height="46" rx="9"/><rect x="420" y="91" width="34" height="46" rx="9"/><rect x="423" y="142" width="34" height="46" rx="9"/></g>
  <path d="M286 315h28" stroke="#35b8ee" stroke-width="4" stroke-linecap="round" opacity=".8"/>
</svg>
